<svg width="72" height="72" viewBox="0 0 72 72" fill="none" xmlns="http://www.w3.org/2000/svg">
  <defs>
    <linearGradient id="healthTrackGlow" x1="14" y1="12" x2="58" y2="60" gradientUnits="userSpaceOnUse">
      <stop stop-color="#F3F0E6" stop-opacity="0.3"/>
      <stop offset="1" stop-color="#F3F0E6" stop-opacity="0.08"/>
    </linearGradient>
  </defs>
  <rect x="6" y="6" width="60" height="60" rx="18" fill="url(#healthTrackGlow)"/>
  <path d="M24 51V31.5C24 29.8431 25.3431 28.5 27 28.5H45C46.6569 28.5 48 29.8431 48 31.5V51" stroke="#F3F0E6" stroke-width="2.8" stroke-linecap="round" stroke-linejoin="round"/>
  <path d="M18 51H54" stroke="#F3F0E6" stroke-width="2.8" stroke-linecap="round"/>
  <path d="M31 22H41" stroke="#F3F0E6" stroke-width="2.8" stroke-linecap="round"/>
  <path d="M36 17V27" stroke="#F3F0E6" stroke-width="2.8" stroke-linecap="round"/>
  <path d="M30 37H42" stroke="#F3F0E6" stroke-width="2.8" stroke-linecap="round"/>
  <path d="M36 31V43" stroke="#F3F0E6" stroke-width="2.8" stroke-linecap="round"/>
  <path d="M19 47L25 42L30 44.5L36 36L42 39L48 31L53 33.5" stroke="#A7BCC7" stroke-width="2.8" stroke-linecap="round" stroke-linejoin="round"/>
  <circle cx="25" cy="42" r="2.5" fill="#A7BCC7"/>
  <circle cx="36" cy="36" r="2.5" fill="#A7BCC7"/>
  <circle cx="48" cy="31" r="2.5" fill="#A7BCC7"/>
</svg>
